HIERARCHY
ROOT Hips
{
    OFFSET 0.000000 0.000000 0.000000
    CHANNELS 6 Xposition Yposition Zposition Zrotation Xrotation Yrotation
    JOINT Spine
    {
        OFFSET -0.000000 8.339920 0.000000
        CHANNELS 3 Zrotation Xrotation Yrotation
        JOINT Spine1
        {
            OFFSET -0.000000 25.214485 0.000000
            CHANNELS 3 Zrotation Xrotation Yrotation
            JOINT Neck
            {
                OFFSET -0.000000 25.110935 2.282812
                CHANNELS 3 Zrotation Xrotation Yrotation
                JOINT Head
                {
                    OFFSET -0.000000 14.238888 -2.034127
                    CHANNELS 3 Zrotation Xrotation Yrotation
                    End Site
                    {
                        OFFSET -0.000000 25.426584 0.000000
                    }
                }
            }
            JOINT LeftShoulder
            {
                OFFSET 4.025024 23.158985 -0.185822
                CHANNELS 3 Zrotation Xrotation Yrotation
                JOINT LeftArm
                {
                    OFFSET 11.674057 0.000000 0.000000
                    CHANNELS 3 Zrotation Xrotation Yrotation
                    JOINT LeftForeArm
                    {
                        OFFSET 31.688633 0.000000 0.000000
                        CHANNELS 3 Zrotation Xrotation Yrotation
                        JOINT LeftHand
                        {
                            OFFSET 29.704493 0.000000 0.000000
                            CHANNELS 3 Zrotation Xrotation Yrotation
                            End Site
                            {
                                OFFSET 15.255952 0.000000 0.000000
                            }
                        }
                    }
                }
            }
            JOINT RightShoulder
            {
                OFFSET -4.099539 23.158985 -0.185822
                CHANNELS 3 Zrotation Xrotation Yrotation
                JOINT RightArm
                {
                    OFFSET -11.674057 0.000000 0.000000
                    CHANNELS 3 Zrotation Xrotation Yrotation
                    JOINT RightForeArm
                    {
                        OFFSET -31.688633 0.000000 0.000000
                        CHANNELS 3 Zrotation Xrotation Yrotation
                        JOINT RightHand
                        {
                            OFFSET -29.704493 0.000000 0.000000
                            CHANNELS 3 Zrotation Xrotation Yrotation
                            End Site
                            {
                                OFFSET -15.255952 0.000000 0.000000
                            }
                        }
                    }
                }
            }
        }
    }
    JOINT LeftUpLeg
    {
        OFFSET 10.170634 0.000000 0.000000
        CHANNELS 3 Zrotation Xrotation Yrotation
        JOINT LeftLeg
        {
            OFFSET -0.000000 -41.352962 0.000000
            CHANNELS 3 Zrotation Xrotation Yrotation
            JOINT LeftFoot
            {
                OFFSET -0.000000 -47.535004 0.000000
                CHANNELS 3 Zrotation Xrotation Yrotation
                JOINT LeftToeBase
                {
                    OFFSET -0.000000 -6.610912 15.255952
                    CHANNELS 3 Zrotation Xrotation Yrotation
                    End Site
                    {
                        OFFSET -0.000000 0.000000 4.068254
                    }
                }
            }
        }
    }
    JOINT RightUpLeg
    {
        OFFSET -10.170634 0.000000 0.000000
        CHANNELS 3 Zrotation Xrotation Yrotation
        JOINT RightLeg
        {
            OFFSET -0.000000 -41.352962 0.000000
            CHANNELS 3 Zrotation Xrotation Yrotation
            JOINT RightFoot
            {
                OFFSET -0.000000 -47.535004 0.000000
                CHANNELS 3 Zrotation Xrotation Yrotation
                JOINT RightToeBase
                {
                    OFFSET -0.000000 -6.610912 15.255952
                    CHANNELS 3 Zrotation Xrotation Yrotation
                    End Site
                    {
                        OFFSET -0.000000 0.000000 4.068254
                    }
                }
            }
        }
    }
}
MOTION
Frames:    11
Frame Time:    0.008333
62.680428    93.716339    20.304659    -8.366669    -3.351505    89.570717    -1.408756    -8.421436    -2.071736    0.152612    15.515785    -1.988817    -4.605635    19.070614    -9.532508    13.523948    -13.371537    -6.589183    7.242815    1.967706    -12.717159    -53.051212    53.967484    -22.212917    10.358778    -16.411421    -23.207102    -22.008747    -13.709683    -3.417640    -10.811816    -3.049520    3.322689    63.133251    68.680176    14.399943    -2.964748    -9.180004    19.988573    -2.259394    -8.778946    5.908156    5.232517    -9.618358    2.418253    -1.328917    -0.054882    4.258601    -12.174041    -14.473250    2.490005    0.000000    0.000000    0.000000    4.960884    -11.507800    2.838822    -2.452400    7.566247    -0.377952    -2.995523    -7.407721    -15.119746    0.000000    0.000000    0.000000    
62.511082    93.700577    20.342424    -8.595639    -3.280152    89.550072    -1.357003    -8.374450    -1.916165    0.076203    15.657187    -1.827249    -4.437875    19.146168    -9.678802    13.536041    -13.899926    -6.677200    7.358993    2.043438    -12.871985    -52.899910    53.841194    -22.411879    10.210272    -16.542791    -22.998262    -21.876984    -13.884665    -3.474951    -10.801058    -3.205749    3.231219    62.670372    68.997421    14.901709    -2.976665    -9.439377    20.122890    -2.423835    -9.040538    5.868992    5.188068    -10.048181    2.353024    -1.323930    0.126015    4.291883    -11.810295    -14.461429    2.582495    0.000000    0.000000    0.000000    4.933927    -11.813207    2.818928    -2.501957    7.572639    -0.154508    -2.875100    -7.652061    -15.295962    0.000000    0.000000    0.000000    
62.327217    93.667664    20.381918    -8.841347    -3.196799    89.553131    -1.174265    -8.144940    -1.876225    -0.203402    15.428102    -1.765031    -4.570816    19.255175    -9.698514    13.747181    -13.962376    -6.643787    7.373863    2.176769    -12.842253    -52.842442    53.891575    -22.291986    10.109628    -16.655716    -22.842390    -21.787546    -14.047381    -3.412591    -10.606676    -3.030442    3.453099    61.880230    68.885025    15.710975    -2.977298    -9.482377    20.201502    -2.435764    -9.081461    5.843456    5.128262    -10.547529    2.286398    -1.317462    0.377857    4.249829    -11.361976    -14.517908    2.737858    0.000000    0.000000    0.000000    4.866319    -12.116838    3.045177    -2.469742    7.553952    -0.077522    -2.817436    -7.925483    -15.582159    0.000000    0.000000    0.000000    
62.116348    93.638634    20.428774    -9.117365    -3.103877    89.545212    -1.117436    -7.983700    -1.797312    -0.275304    15.395656    -1.682142    -4.587073    19.386494    -9.830734    13.817711    -14.451962    -6.712572    7.387558    2.158264    -12.849791    -52.860252    53.871258    -22.193754    10.030190    -16.615599    -22.718460    -21.824430    -14.042839    -3.356435    -10.608913    -3.085503    3.400550    61.033520    69.201057    16.684763    -3.031560    -9.711192    20.224613    -2.524491    -9.305205    5.859192    5.061210    -11.129495    2.080458    -1.304274    0.694992    4.341343    -10.944787    -14.556379    2.913686    0.000000    0.000000    0.000000    4.825638    -12.495496    3.322957    -2.474766    7.549723    -0.407057    -2.781950    -8.153096    -15.485856    0.000000    0.000000    0.000000    
61.887264    93.593369    20.470377    -9.437662    -3.035959    89.543427    -0.868217    -7.872078    -1.691848    -0.687213    15.415323    -1.539103    -4.439460    19.542969    -9.904884    13.949114    -15.039530    -6.688066    7.586400    2.103328    -12.926135    -52.870934    53.876839    -22.128025    9.979488    -16.567249    -22.539522    -21.972887    -14.003477    -3.418933    -10.393403    -3.204103    3.607589    61.008232    69.066322    16.737925    -3.106369    -9.767492    20.320824    -2.606272    -9.353321    6.011839    5.013540    -11.791592    1.932449    -1.286806    1.059382    4.399136    -10.512745    -14.650991    3.052622    0.000000    0.000000    0.000000    4.809800    -12.976327    3.505937    -2.492200    7.661660    -0.181239    -2.861365    -8.425365    -15.811024    0.000000    0.000000    0.000000    
61.636436    93.554001    20.523220    -9.805360    -2.992742    89.559181    -0.735616    -7.742981    -1.621268    -0.781189    15.385974    -1.465941    -4.606733    19.273703    -10.151531    14.118779    -14.774386    -6.924841    7.561775    2.182084    -12.993676    -52.701756    53.760078    -22.162914    9.841077    -16.529423    -22.382139    -22.067764    -13.991321    -3.480579    -10.421769    -3.267631    3.681221    60.585396    68.956955    17.364876    -3.124353    -9.844080    20.330349    -2.808523    -9.433222    5.854596    5.004496    -12.557557    1.829684    -1.288968    1.491527    4.276649    -10.035586    -14.731421    3.324063    0.000000    0.000000    0.000000    4.835899    -13.556928    3.740504    -2.509312    7.822973    -0.194062    -2.932804    -8.667755    -15.968178    0.000000    0.000000    0.000000    
61.370361    93.518921    20.571585    -10.195434    -2.956205    89.544930    -0.665374    -7.730381    -1.488090    -0.745529    15.648122    -1.340704    -4.700020    19.335520    -10.231250    14.358459    -15.531110    -6.857285    7.550176    1.924921    -13.085158    -52.691051    53.880348    -22.065369    9.775998    -16.458376    -22.355499    -21.743473    -13.969025    -3.347686    -10.552191    -3.518450    3.748850    60.591267    68.928612    17.508801    -3.278013    -10.048505    20.430304    -2.916144    -9.614447    5.902918    5.003854    -13.371586    1.800201    -1.291212    1.960584    4.126199    -9.597783    -14.789069    3.570425    0.000000    0.000000    0.000000    4.869203    -14.202555    3.964227    -2.520416    8.026986    -0.185455    -2.721657    -9.027063    -16.135494    0.000000    0.000000    0.000000    
61.096680    93.484207    20.648727    -10.540952    -2.981856    89.577972    -0.390627    -7.543058    -1.433002    -1.047148    15.706678    -1.262825    -4.623058    19.432066    -10.316567    14.480046    -16.183199    -6.835175    7.764803    1.987560    -13.106132    -52.489124    53.734676    -22.317841    9.685548    -16.398783    -22.098612    -21.753420    -13.919848    -3.497765    -10.382474    -3.618694    3.818035    59.848507    68.813721    18.365431    -3.270548    -10.092541    20.452488    -2.892882    -9.662030    6.062449    5.083467    -14.175239    1.798628    -1.307070    2.472305    3.958112    -9.187321    -14.889165    3.775258    0.000000    0.000000    0.000000    4.985181    -14.816879    4.300031    -2.567210    8.235008    -0.206458    -2.778280    -9.171225    -16.295881    0.000000    0.000000    0.000000    
60.788597    93.443886    20.723591    -10.970733    -3.048224    89.608871    -0.193154    -7.401700    -1.349851    -1.096324    15.807765    -1.185122    -4.623075    19.308449    -10.477241    14.579514    -16.574110    -6.921522    7.658383    2.010630    -13.113256    -51.963367    53.736309    -22.655325    9.615690    -16.380003    -21.964951    -21.610178    -13.952442    -3.376292    -10.386265    -3.783535    3.886694    59.403313    68.778351    18.936121    -3.353034    -10.278708    20.490953    -3.134664    -9.843432    5.995473    5.191932    -15.110546    1.726590    -1.297459    3.037227    3.847878    -8.717580    -14.986300    3.973548    0.000000    0.000000    0.000000    5.137280    -15.597717    4.511042    -2.575737    8.565238    -0.228654    -2.860435    -9.344343    -16.463692    0.000000    0.000000    0.000000    
60.467728    93.413269    20.787880    -11.427316    -3.101287    89.660385    0.089344    -7.262257    -1.320367    -1.341967    15.910240    -1.138511    -4.581857    18.998264    -10.588043    14.613814    -16.603466    -7.009081    7.764502    1.726169    -13.060015    -52.087040    53.802082    -22.489080    9.541513    -16.261017    -21.819586    -21.465933    -13.879661    -3.284036    -10.263676    -3.790763    3.979396    58.376247    68.580376    20.085075    -3.370084    -10.391855    20.529301    -3.396513    -9.966005    5.993643    5.252442    -16.102222    1.647732    -1.246799    3.615352    3.831325    -8.405588    -15.033803    4.053682    0.000000    0.000000    0.000000    5.255957    -16.439526    4.701895    -2.561282    8.941481    -0.293341    -2.991559    -9.475348    -16.592216    0.000000    0.000000    0.000000    
60.079338    93.380295    20.858740    -11.950130    -3.141001    89.610970    0.317264    -7.065812    -1.215777    -1.529554    15.948744    -1.021139    -4.511146    18.987120    -10.770800    14.827191    -17.221437    -7.059612    8.079802    1.883016    -13.159169    -51.971222    53.382530    -22.844269    9.536228    -16.065615    -21.648319    -21.409588    -13.712111    -3.213232    -10.102044    -3.903164    4.123450    57.667980    68.323837    20.802256    -3.399800    -10.451447    20.605728    -3.251971    -10.015139    6.155015    5.334540    -17.222673    1.730578    -1.185063    4.279943    3.793908    -8.162945    -15.071692    4.069849    0.000000    0.000000    0.000000    5.403576    -17.483145    4.946292    -2.545186    9.487506    -0.332693    -3.487484    -9.505292    -16.679644    0.000000    0.000000    0.000000    
